<svg width="140" height="140" viewBox="0 0 140 140" fill="none" xmlns="http://www.w3.org/2000/svg">
<path d="M69.6938 0C31.2611 0 0 31.2611 0 69.6938V139.339H44.5869V139.375H69.6938C108.114 139.375 139.388 108.114 139.388 69.6816C139.388 31.2488 108.114 0 69.6938 0ZM69.6938 106.974C58.685 106.974 32.5238 106.864 32.5238 106.864C32.5238 106.864 32.4135 76.7061 32.4135 69.6938C32.4135 49.0983 49.0983 32.4135 69.6938 32.4135C90.2894 32.4135 106.974 49.0983 106.974 69.6938C106.974 90.2894 90.2771 106.974 69.6938 106.974Z" fill="#42E2B7"/>
<path d="M69.6925 80.482C75.4543 80.482 80.1251 75.8111 80.1251 70.0493C80.1251 64.2876 75.4543 59.6167 69.6925 59.6167C63.9307 59.6167 59.2599 64.2876 59.2599 70.0493C59.2599 75.8111 63.9307 80.482 69.6925 80.482Z" fill="#4C87FF"/>
</svg>
