<svg width="933" height="169" viewBox="0 0 933 169" fill="none" xmlns="http://www.w3.org/2000/svg">
<g clip-path="url(#clip0_12_19)">
<g filter="url(#filter0_d_12_19)">
<path d="M217.223 73.0407H189.063V129.973H165.489V73.0407H154.934V53.4504H165.489V47.333C165.489 24.5308 177.27 14.5886 195.181 14.5886C198.393 14.5886 202.07 14.895 205.736 15.508V35.7112H199.153C191.037 35.7112 189.051 40.7621 189.051 47.3453V53.4626H240.932V129.985H217.211V73.0529L217.223 73.0407Z" fill="white"/>
<path d="M256.956 129.973V53.4504H279.145L280.677 61.4066C285.422 54.8234 294.15 50.9985 304.092 50.9985C322.31 50.9985 332.865 62.6326 332.865 82.6764V129.973H309.29V88.3402C309.29 78.7044 303.933 72.4277 295.817 72.4277C286.476 72.4277 280.518 78.5451 280.518 88.0337V129.973H256.943H256.956Z" fill="white"/>
<path d="M343.996 92.165C343.996 67.8304 358.536 50.9985 381.791 50.9985C391.28 50.9985 400.315 54.8233 404.753 60.4871V14.5762H428.327V129.973H406.138L404.912 120.177C400.781 127.214 391.292 131.959 380.271 131.959C358.229 131.959 343.996 116.34 343.996 92.165ZM404.606 91.2456C404.606 79.7709 396.956 72.1211 385.935 72.1211C374.914 72.1211 367.718 79.9303 367.718 91.2456C367.718 102.561 374.755 110.382 385.935 110.382C397.115 110.382 404.606 102.732 404.606 91.2456Z" fill="white"/>
<path d="M443.971 129.973V53.4504H466.013L467.545 61.4066C471.37 56.0493 478.873 50.9985 489.894 50.9985C500.915 50.9985 508.712 56.3558 513.162 64.4592C517.146 56.3558 526.169 50.9985 537.19 50.9985C556.927 50.9985 566.723 62.4732 566.723 79.9181V129.96H543.148V86.5013C543.148 76.8655 538.097 72.2683 530.595 72.2683C523.864 72.2683 517.134 75.9461 517.134 88.9532V129.973H493.559V86.5136C493.559 77.0249 488.656 72.44 481.165 72.44C474.435 72.44 467.545 76.1177 467.545 88.9654V129.985H443.971V129.973Z" fill="white"/>
<path d="M572.348 146.952H585.355C593.311 146.952 596.682 144.5 599.735 136.237L601.108 132.559L570.35 53.4381H595.604L612.289 102.561L630.812 53.4381H655.294L616.42 146.645C609.996 162.251 601.427 168.834 587.954 168.834C582.29 168.834 576.933 168.074 572.348 166.689V146.952Z" fill="white"/>
<path d="M654.77 92.165C654.77 67.8304 669.309 50.9985 692.565 50.9985C702.053 50.9985 711.089 54.8233 715.526 60.4871V14.5762H739.101V129.973H716.912L715.686 120.177C711.554 127.214 702.066 131.959 691.045 131.959C669.003 131.959 654.77 116.34 654.77 92.165ZM715.379 91.2456C715.379 79.7709 707.73 72.1211 696.708 72.1211C685.687 72.1211 678.491 79.9303 678.491 91.2456C678.491 102.561 685.528 110.382 696.708 110.382C707.889 110.382 715.379 102.732 715.379 91.2456Z" fill="white"/>
<path d="M792.956 51.1456C817.29 51.1456 835.042 67.3646 835.042 91.552C835.042 115.74 817.29 131.799 792.956 131.799C768.621 131.799 750.723 115.727 750.723 91.552C750.723 67.3768 768.474 51.1456 792.956 51.1456ZM792.956 110.676C803.83 110.676 811.32 103.027 811.32 91.3927C811.32 79.7587 803.817 72.256 792.956 72.256C782.094 72.256 774.444 79.9058 774.444 91.3927C774.444 102.88 781.947 110.676 792.956 110.676Z" fill="white"/>
<path d="M881.698 50.9985C904.341 50.9985 919.346 63.3926 920.879 83.4488H897.157C895.478 75.799 890.733 72.1212 882.618 72.1212C872.675 72.1212 866.239 79.6239 866.239 91.405C866.239 103.186 872.209 110.836 882.311 110.836C890.574 110.836 895.625 107.011 897.157 99.5084H920.879C919.346 118.792 903.74 131.959 882.311 131.959C858.136 131.959 842.518 115.887 842.518 91.405C842.518 66.9233 858.737 50.9985 881.698 50.9985Z" fill="white"/>
</g>
<g filter="url(#filter1_d_12_19)">
<path d="M69.6938 0C31.2611 0 0 31.2611 0 69.6938V139.339H44.5869V139.375H69.6938C108.114 139.375 139.388 108.114 139.388 69.6816C139.388 31.2488 108.114 0 69.6938 0ZM69.6938 106.974C58.685 106.974 32.5238 106.864 32.5238 106.864C32.5238 106.864 32.4135 76.7061 32.4135 69.6938C32.4135 49.0983 49.0983 32.4135 69.6938 32.4135C90.2894 32.4135 106.974 49.0983 106.974 69.6938C106.974 90.2894 90.2771 106.974 69.6938 106.974Z" fill="#42E2B7"/>
</g>
<g filter="url(#filter2_d_12_19)">
<path d="M69.6925 80.482C75.4543 80.482 80.1251 75.8111 80.1251 70.0493C80.1251 64.2876 75.4543 59.6167 69.6925 59.6167C63.9307 59.6167 59.2599 64.2876 59.2599 70.0493C59.2599 75.8111 63.9307 80.482 69.6925 80.482Z" fill="#4C87FF"/>
</g>
<g filter="url(#filter3_d_12_19)">
<path d="M229.35 14.5762C221.81 14.5762 215.705 20.6813 215.705 28.2208C215.705 30.7952 215.742 41.8285 215.742 41.8285C215.742 41.8285 225.316 41.8653 229.35 41.8653C236.889 41.8653 242.994 35.7602 242.994 28.2208C242.994 20.6813 236.877 14.5762 229.35 14.5762ZM229.35 32.1683C227.241 32.1683 225.525 30.452 225.525 28.3556C225.525 26.2593 227.241 24.543 229.35 24.543C231.458 24.543 233.162 26.2593 233.162 28.3556C233.162 30.452 231.446 32.1683 229.35 32.1683Z" fill="#4C87FF"/>
</g>
</g>
<defs>
<filter id="filter0_d_12_19" x="139.934" y="4.57624" width="805.945" height="194.258" filterUnits="userSpaceOnUse" color-interpolation-filters="sRGB">
<feFlood flood-opacity="0" result="BackgroundImageFix"/>
<feColorMatrix in="SourceAlpha" type="matrix" values="0 0 0 0 0 0 0 0 0 0 0 0 0 0 0 0 0 0 127 0" result="hardAlpha"/>
<feOffset dx="5" dy="10"/>
<feGaussianBlur stdDeviation="10"/>
<feComposite in2="hardAlpha" operator="out"/>
<feColorMatrix type="matrix" values="0 0 0 0 0 0 0 0 0 0 0 0 0 0 0 0 0 0 0.15 0"/>
<feBlend mode="normal" in2="BackgroundImageFix" result="effect1_dropShadow_12_19"/>
<feBlend mode="normal" in="SourceGraphic" in2="effect1_dropShadow_12_19" result="shape"/>
</filter>
<filter id="filter1_d_12_19" x="-15" y="-10" width="179.388" height="179.375" filterUnits="userSpaceOnUse" color-interpolation-filters="sRGB">
<feFlood flood-opacity="0" result="BackgroundImageFix"/>
<feColorMatrix in="SourceAlpha" type="matrix" values="0 0 0 0 0 0 0 0 0 0 0 0 0 0 0 0 0 0 127 0" result="hardAlpha"/>
<feOffset dx="5" dy="10"/>
<feGaussianBlur stdDeviation="10"/>
<feComposite in2="hardAlpha" operator="out"/>
<feColorMatrix type="matrix" values="0 0 0 0 0 0 0 0 0 0 0 0 0 0 0 0 0 0 0.15 0"/>
<feBlend mode="normal" in2="BackgroundImageFix" result="effect1_dropShadow_12_19"/>
<feBlend mode="normal" in="SourceGraphic" in2="effect1_dropShadow_12_19" result="shape"/>
</filter>
<filter id="filter2_d_12_19" x="44.2599" y="49.6167" width="60.8652" height="60.8652" filterUnits="userSpaceOnUse" color-interpolation-filters="sRGB">
<feFlood flood-opacity="0" result="BackgroundImageFix"/>
<feColorMatrix in="SourceAlpha" type="matrix" values="0 0 0 0 0 0 0 0 0 0 0 0 0 0 0 0 0 0 127 0" result="hardAlpha"/>
<feOffset dx="5" dy="10"/>
<feGaussianBlur stdDeviation="10"/>
<feComposite in2="hardAlpha" operator="out"/>
<feColorMatrix type="matrix" values="0 0 0 0 0 0 0 0 0 0 0 0 0 0 0 0 0 0 0.15 0"/>
<feBlend mode="normal" in2="BackgroundImageFix" result="effect1_dropShadow_12_19"/>
<feBlend mode="normal" in="SourceGraphic" in2="effect1_dropShadow_12_19" result="shape"/>
</filter>
<filter id="filter3_d_12_19" x="200.705" y="4.57623" width="67.2891" height="67.2891" filterUnits="userSpaceOnUse" color-interpolation-filters="sRGB">
<feFlood flood-opacity="0" result="BackgroundImageFix"/>
<feColorMatrix in="SourceAlpha" type="matrix" values="0 0 0 0 0 0 0 0 0 0 0 0 0 0 0 0 0 0 127 0" result="hardAlpha"/>
<feOffset dx="5" dy="10"/>
<feGaussianBlur stdDeviation="10"/>
<feComposite in2="hardAlpha" operator="out"/>
<feColorMatrix type="matrix" values="0 0 0 0 0 0 0 0 0 0 0 0 0 0 0 0 0 0 0.15 0"/>
<feBlend mode="normal" in2="BackgroundImageFix" result="effect1_dropShadow_12_19"/>
<feBlend mode="normal" in="SourceGraphic" in2="effect1_dropShadow_12_19" result="shape"/>
</filter>
<clipPath id="clip0_12_19">
<rect width="950" height="169" fill="white"/>
</clipPath>
</defs>
</svg>
